<svg id="mermaid-1603115686194" width="669.71484375" xmlns="http://www.w3.org/2000/svg" height="555.90625" viewBox="-20 -20 669.71484375 555.90625"><style>#mermaid-1603115686194 .label{font-family:'trebuchet ms', verdana, arial;font-family:var(--mermaid-font-family);color:#333}#mermaid-1603115686194 .label text{fill:#333}#mermaid-1603115686194 .node rect,#mermaid-1603115686194 .node circle,#mermaid-1603115686194 .node ellipse,#mermaid-1603115686194 .node polygon,#mermaid-1603115686194 .node path{fill:#ECECFF;stroke:#9370db;stroke-width:1px}#mermaid-1603115686194 .node .label{text-align:center}#mermaid-1603115686194 .node.clickable{cursor:pointer}#mermaid-1603115686194 .arrowheadPath{fill:#333}#mermaid-1603115686194 .edgePath .path{stroke:#333;stroke-width:1.5px}#mermaid-1603115686194 .edgeLabel{background-color:#e8e8e8;text-align:center}#mermaid-1603115686194 .edgeLabel rect{opacity:0.5}#mermaid-1603115686194 .cluster rect{fill:#ffffde;stroke:#aa3;stroke-width:1px}#mermaid-1603115686194 .cluster text{fill:#333}#mermaid-1603115686194 div.mermaidTooltip{position:absolute;text-align:center;max-width:200px;padding:2px;font-family:'trebuchet ms', verdana, arial;font-family:var(--mermaid-font-family);font-size:12px;background:#ffffde;border:1px solid #aa3;border-radius:2px;pointer-events:none;z-index:100}#mermaid-1603115686194 .actor{stroke:#ccf;fill:#ECECFF}#mermaid-1603115686194 text.actor{fill:#000;stroke:none}#mermaid-1603115686194 .actor-line{stroke:grey}#mermaid-1603115686194 .messageLine0{stroke-width:1.5;stroke-dasharray:'2 2';stroke:#333}#mermaid-1603115686194 .messageLine1{stroke-width:1.5;stroke-dasharray:'2 2';stroke:#333}#mermaid-1603115686194 #arrowhead{fill:#333}#mermaid-1603115686194 .sequenceNumber{fill:#fff}#mermaid-1603115686194 #sequencenumber{fill:#333}#mermaid-1603115686194 #crosshead path{fill:#333 !important;stroke:#333 !important}#mermaid-1603115686194 .messageText{fill:#333;stroke:none}#mermaid-1603115686194 .labelBox{stroke:#ccf;fill:#ECECFF}#mermaid-1603115686194 .labelText{fill:#000;stroke:none}#mermaid-1603115686194 .loopText{fill:#000;stroke:none}#mermaid-1603115686194 .loopLine{stroke-width:2;stroke-dasharray:'2 2';stroke:#ccf}#mermaid-1603115686194 .note{stroke:#aa3;fill:#fff5ad}#mermaid-1603115686194 .noteText{fill:black;stroke:none;font-family:'trebuchet ms', verdana, arial;font-family:var(--mermaid-font-family);font-size:14px}#mermaid-1603115686194 .activation0{fill:#f4f4f4;stroke:#666}#mermaid-1603115686194 .activation1{fill:#f4f4f4;stroke:#666}#mermaid-1603115686194 .activation2{fill:#f4f4f4;stroke:#666}#mermaid-1603115686194 .mermaid-main-font{font-family:"trebuchet ms", verdana, arial;font-family:var(--mermaid-font-family)}#mermaid-1603115686194 .section{stroke:none;opacity:0.2}#mermaid-1603115686194 .section0{fill:rgba(102,102,255,0.49)}#mermaid-1603115686194 .section2{fill:#fff400}#mermaid-1603115686194 .section1,#mermaid-1603115686194 .section3{fill:#fff;opacity:0.2}#mermaid-1603115686194 .sectionTitle0{fill:#333}#mermaid-1603115686194 .sectionTitle1{fill:#333}#mermaid-1603115686194 .sectionTitle2{fill:#333}#mermaid-1603115686194 .sectionTitle3{fill:#333}#mermaid-1603115686194 .sectionTitle{text-anchor:start;font-size:11px;text-height:14px;font-family:'trebuchet ms', verdana, arial;font-family:var(--mermaid-font-family)}#mermaid-1603115686194 .grid .tick{stroke:#d3d3d3;opacity:0.8;shape-rendering:crispEdges}#mermaid-1603115686194 .grid .tick text{font-family:'trebuchet ms', verdana, arial;font-family:var(--mermaid-font-family)}#mermaid-1603115686194 .grid path{stroke-width:0}#mermaid-1603115686194 .today{fill:none;stroke:red;stroke-width:2px}#mermaid-1603115686194 .task{stroke-width:2}#mermaid-1603115686194 .taskText{text-anchor:middle;font-family:'trebuchet ms', verdana, arial;font-family:var(--mermaid-font-family)}#mermaid-1603115686194 .taskText:not([font-size]){font-size:11px}#mermaid-1603115686194 .taskTextOutsideRight{fill:#000;text-anchor:start;font-size:11px;font-family:'trebuchet ms', verdana, arial;font-family:var(--mermaid-font-family)}#mermaid-1603115686194 .taskTextOutsideLeft{fill:#000;text-anchor:end;font-size:11px}#mermaid-1603115686194 .task.clickable{cursor:pointer}#mermaid-1603115686194 .taskText.clickable{cursor:pointer;fill:#003163 !important;font-weight:bold}#mermaid-1603115686194 .taskTextOutsideLeft.clickable{cursor:pointer;fill:#003163 !important;font-weight:bold}#mermaid-1603115686194 .taskTextOutsideRight.clickable{cursor:pointer;fill:#003163 !important;font-weight:bold}#mermaid-1603115686194 .taskText0,#mermaid-1603115686194 .taskText1,#mermaid-1603115686194 .taskText2,#mermaid-1603115686194 .taskText3{fill:#fff}#mermaid-1603115686194 .task0,#mermaid-1603115686194 .task1,#mermaid-1603115686194 .task2,#mermaid-1603115686194 .task3{fill:#8a90dd;stroke:#534fbc}#mermaid-1603115686194 .taskTextOutside0,#mermaid-1603115686194 .taskTextOutside2{fill:#000}#mermaid-1603115686194 .taskTextOutside1,#mermaid-1603115686194 .taskTextOutside3{fill:#000}#mermaid-1603115686194 .active0,#mermaid-1603115686194 .active1,#mermaid-1603115686194 .active2,#mermaid-1603115686194 .active3{fill:#bfc7ff;stroke:#534fbc}#mermaid-1603115686194 .activeText0,#mermaid-1603115686194 .activeText1,#mermaid-1603115686194 .activeText2,#mermaid-1603115686194 .activeText3{fill:#000 !important}#mermaid-1603115686194 .done0,#mermaid-1603115686194 .done1,#mermaid-1603115686194 .done2,#mermaid-1603115686194 .done3{stroke:grey;fill:#d3d3d3;stroke-width:2}#mermaid-1603115686194 .doneText0,#mermaid-1603115686194 .doneText1,#mermaid-1603115686194 .doneText2,#mermaid-1603115686194 .doneText3{fill:#000 !important}#mermaid-1603115686194 .crit0,#mermaid-1603115686194 .crit1,#mermaid-1603115686194 .crit2,#mermaid-1603115686194 .crit3{stroke:#f88;fill:red;stroke-width:2}#mermaid-1603115686194 .activeCrit0,#mermaid-1603115686194 .activeCrit1,#mermaid-1603115686194 .activeCrit2,#mermaid-1603115686194 .activeCrit3{stroke:#f88;fill:#bfc7ff;stroke-width:2}#mermaid-1603115686194 .doneCrit0,#mermaid-1603115686194 .doneCrit1,#mermaid-1603115686194 .doneCrit2,#mermaid-1603115686194 .doneCrit3{stroke:#f88;fill:#d3d3d3;stroke-width:2;cursor:pointer;shape-rendering:crispEdges}#mermaid-1603115686194 .milestone{transform:rotate(45deg) scale(0.8, 0.8)}#mermaid-1603115686194 .milestoneText{font-style:italic}#mermaid-1603115686194 .doneCritText0,#mermaid-1603115686194 .doneCritText1,#mermaid-1603115686194 .doneCritText2,#mermaid-1603115686194 .doneCritText3{fill:#000 !important}#mermaid-1603115686194 .activeCritText0,#mermaid-1603115686194 .activeCritText1,#mermaid-1603115686194 .activeCritText2,#mermaid-1603115686194 .activeCritText3{fill:#000 !important}#mermaid-1603115686194 .titleText{text-anchor:middle;font-size:18px;fill:#000;font-family:'trebuchet ms', verdana, arial;font-family:var(--mermaid-font-family)}#mermaid-1603115686194 g.classGroup text{fill:#9370db;stroke:none;font-family:'trebuchet ms', verdana, arial;font-family:var(--mermaid-font-family);font-size:10px}#mermaid-1603115686194 g.classGroup text .title{font-weight:bolder}#mermaid-1603115686194 g.clickable{cursor:pointer}#mermaid-1603115686194 g.classGroup rect{fill:#ECECFF;stroke:#9370db}#mermaid-1603115686194 g.classGroup line{stroke:#9370db;stroke-width:1}#mermaid-1603115686194 .classLabel .box{stroke:none;stroke-width:0;fill:#ECECFF;opacity:0.5}#mermaid-1603115686194 .classLabel .label{fill:#9370db;font-size:10px}#mermaid-1603115686194 .relation{stroke:#9370db;stroke-width:1;fill:none}#mermaid-1603115686194 .dashed-line{stroke-dasharray:3}#mermaid-1603115686194 #compositionStart{fill:#9370db;stroke:#9370db;stroke-width:1}#mermaid-1603115686194 #compositionEnd{fill:#9370db;stroke:#9370db;stroke-width:1}#mermaid-1603115686194 #aggregationStart{fill:#ECECFF;stroke:#9370db;stroke-width:1}#mermaid-1603115686194 #aggregationEnd{fill:#ECECFF;stroke:#9370db;stroke-width:1}#mermaid-1603115686194 #dependencyStart{fill:#9370db;stroke:#9370db;stroke-width:1}#mermaid-1603115686194 #dependencyEnd{fill:#9370db;stroke:#9370db;stroke-width:1}#mermaid-1603115686194 #extensionStart{fill:#9370db;stroke:#9370db;stroke-width:1}#mermaid-1603115686194 #extensionEnd{fill:#9370db;stroke:#9370db;stroke-width:1}#mermaid-1603115686194 .commit-id,#mermaid-1603115686194 .commit-msg,#mermaid-1603115686194 .branch-label{fill:lightgrey;color:lightgrey;font-family:'trebuchet ms', verdana, arial;font-family:var(--mermaid-font-family)}#mermaid-1603115686194 .pieTitleText{text-anchor:middle;font-size:25px;fill:#000;font-family:'trebuchet ms', verdana, arial;font-family:var(--mermaid-font-family)}#mermaid-1603115686194 .slice{font-family:'trebuchet ms', verdana, arial;font-family:var(--mermaid-font-family)}#mermaid-1603115686194 g.stateGroup text{fill:#9370db;stroke:none;font-size:10px;font-family:'trebuchet ms', verdana, arial;font-family:var(--mermaid-font-family)}#mermaid-1603115686194 g.stateGroup text{fill:#9370db;stroke:none;font-size:10px}#mermaid-1603115686194 g.stateGroup .state-title{font-weight:bolder;fill:#000}#mermaid-1603115686194 g.stateGroup rect{fill:#ECECFF;stroke:#9370db}#mermaid-1603115686194 g.stateGroup line{stroke:#9370db;stroke-width:1}#mermaid-1603115686194 .transition{stroke:#9370db;stroke-width:1;fill:none}#mermaid-1603115686194 .stateGroup .composit{fill:white;border-bottom:1px}#mermaid-1603115686194 .stateGroup .alt-composit{fill:#e0e0e0;border-bottom:1px}#mermaid-1603115686194 .state-note{stroke:#aa3;fill:#fff5ad}#mermaid-1603115686194 .state-note text{fill:black;stroke:none;font-size:10px}#mermaid-1603115686194 .stateLabel .box{stroke:none;stroke-width:0;fill:#ECECFF;opacity:0.5}#mermaid-1603115686194 .stateLabel text{fill:#000;font-size:10px;font-weight:bold;font-family:'trebuchet ms', verdana, arial;font-family:var(--mermaid-font-family)}#mermaid-1603115686194 .node circle.state-start{fill:black;stroke:black}#mermaid-1603115686194 .node circle.state-end{fill:black;stroke:white;stroke-width:1.5}#mermaid-1603115686194 #statediagram-barbEnd{fill:#9370db}#mermaid-1603115686194 .statediagram-cluster rect{fill:#ECECFF;stroke:#9370db;stroke-width:1px}#mermaid-1603115686194 .statediagram-cluster rect.outer{rx:5px;ry:5px}#mermaid-1603115686194 .statediagram-state .divider{stroke:#9370db}#mermaid-1603115686194 .statediagram-state .title-state{rx:5px;ry:5px}#mermaid-1603115686194 .statediagram-cluster.statediagram-cluster .inner{fill:white}#mermaid-1603115686194 .statediagram-cluster.statediagram-cluster-alt .inner{fill:#e0e0e0}#mermaid-1603115686194 .statediagram-cluster .inner{rx:0;ry:0}#mermaid-1603115686194 .statediagram-state rect.basic{rx:5px;ry:5px}#mermaid-1603115686194 .statediagram-state rect.divider{stroke-dasharray:10,10;fill:#efefef}#mermaid-1603115686194 .note-edge{stroke-dasharray:5}#mermaid-1603115686194 .statediagram-note rect{fill:#fff5ad;stroke:#aa3;stroke-width:1px;rx:0;ry:0}:root{--mermaid-font-family: '"trebuchet ms", verdana, arial';--mermaid-font-family: "Comic Sans MS", "Comic Sans", cursive}

:root { --mermaid-font-family: "trebuchet ms", verdana, arial;}</style><style>#mermaid-1603115686194 {
    color: rgb(212, 212, 212);
    font: 13px "trebuchet ms", verdana, arial;
  }</style><g/><defs><marker id="extensionStart" class="extension" refX="0" refY="7" markerWidth="190" markerHeight="240" orient="auto"><path d="M 1,7 L18,13 V 1 Z"/></marker></defs><defs><marker id="extensionEnd" refX="19" refY="7" markerWidth="20" markerHeight="28" orient="auto"><path d="M 1,1 V 13 L18,7 Z"/></marker></defs><defs><marker id="compositionStart" class="extension" refX="0" refY="7" markerWidth="190" markerHeight="240" orient="auto"><path d="M 18,7 L9,13 L1,7 L9,1 Z"/></marker></defs><defs><marker id="compositionEnd" refX="19" refY="7" markerWidth="20" markerHeight="28" orient="auto"><path d="M 18,7 L9,13 L1,7 L9,1 Z"/></marker></defs><defs><marker id="aggregationStart" class="extension" refX="0" refY="7" markerWidth="190" markerHeight="240" orient="auto"><path d="M 18,7 L9,13 L1,7 L9,1 Z"/></marker></defs><defs><marker id="aggregationEnd" refX="19" refY="7" markerWidth="20" markerHeight="28" orient="auto"><path d="M 18,7 L9,13 L1,7 L9,1 Z"/></marker></defs><defs><marker id="dependencyStart" class="extension" refX="0" refY="7" markerWidth="190" markerHeight="240" orient="auto"><path d="M 5,7 L9,13 L1,7 L9,1 Z"/></marker></defs><defs><marker id="dependencyEnd" refX="19" refY="7" markerWidth="20" markerHeight="28" orient="auto"><path d="M 18,7 L9,13 L14,7 L9,1 Z"/></marker></defs><g id="classid-Work-341" class="classGroup clickable" transform="translate(231.75000047683716,0 )"><rect x="0" y="0" width="35.09375" height="30.84375"/><a xmlns:xlink="http://www.w3.org/1999/xlink" xlink:href="https://web.library.yale.edu/cataloging/music/frbr-wemi-music#work" target="_blank"><text y="15" x="0"><tspan class="title" x="5">Work</tspan><title>See https://web.library.yale.edu/cataloging/music/frbr-wemi-music#work</title></text></a><line x1="0" y1="21.671875" y2="21.671875" x2="35.09375"/><text x="5" y="31.671875" fill="white" class="classText"/><line x1="0" y1="26.671875" y2="26.671875" x2="35.09375"/><text x="5" y="41.671875" fill="white" class="classText"/></g><g id="classid-Expression-342" class="classGroup clickable" transform="translate(124.546875,80.84375 )"><rect x="0" y="0" width="63.921875" height="30.84375"/><a xmlns:xlink="http://www.w3.org/1999/xlink" xlink:href="https://web.library.yale.edu/cataloging/music/frbr-wemi-music#expression" target="_blank"><text y="15" x="0"><tspan class="title" x="5">Expression</tspan><title>See https://web.library.yale.edu/cataloging/music/frbr-wemi-music#expression</title></text></a><line x1="0" y1="21.671875" y2="21.671875" x2="63.921875"/><text x="5" y="31.671875" fill="white" class="classText"/><line x1="0" y1="26.671875" y2="26.671875" x2="63.921875"/><text x="5" y="41.671875" fill="white" class="classText"/></g><g id="classid-Manifestation-343" class="classGroup clickable" transform="translate(119.28125,161.6875 )"><rect x="0" y="0" width="74.453125" height="30.84375"/><a xmlns:xlink="http://www.w3.org/1999/xlink" xlink:href="https://web.library.yale.edu/cataloging/music/frbr-wemi-music#manifestation" target="_blank"><text y="15" x="0"><tspan class="title" x="5">Manifestation</tspan><title>See https://web.library.yale.edu/cataloging/music/frbr-wemi-music#manifestation</title></text></a><line x1="0" y1="21.671875" y2="21.671875" x2="74.453125"/><text x="5" y="31.671875" fill="white" class="classText"/><line x1="0" y1="26.671875" y2="26.671875" x2="74.453125"/><text x="5" y="41.671875" fill="white" class="classText"/></g><g id="classid-Item-344" class="classGroup clickable" transform="translate(141.22656154632568,242.53125 )"><rect x="0" y="0" width="30.5625" height="30.84375"/><a xmlns:xlink="http://www.w3.org/1999/xlink" xlink:href="https://web.library.yale.edu/cataloging/music/frbr-wemi-music#item" target="_blank"><text y="15" x="0"><tspan class="title" x="5.000000953674316">Item</tspan><title>See https://web.library.yale.edu/cataloging/music/frbr-wemi-music#item</title></text></a><line x1="0" y1="21.671875" y2="21.671875" x2="30.562501907348633"/><text x="5" y="31.671875" fill="white" class="classText"/><line x1="0" y1="26.671875" y2="26.671875" x2="30.562501907348633"/><text x="5" y="41.671875" fill="white" class="classText"/></g><g id="classid-DigitalObject-345" class="classGroup " transform="translate(147.19921922683716,323.375 )"><rect x="0" y="0" width="71.6875" height="30.84375"/><text y="15" x="0"><tspan class="title" x="5">DigitalObject</tspan></text><line x1="0" y1="21.671875" y2="21.671875" x2="71.6875"/><text x="5" y="31.671875" fill="white" class="classText"/><line x1="0" y1="26.671875" y2="26.671875" x2="71.6875"/><text x="5" y="41.671875" fill="white" class="classText"/></g><g id="classid-FileResource-346" class="classGroup " transform="translate(112.94921922683716,404.21875 )"><rect x="0" y="0" width="73.078125" height="30.84375"/><text y="15" x="0"><tspan class="title" x="5">FileResource</tspan></text><line x1="0" y1="21.671875" y2="21.671875" x2="73.078125"/><text x="5" y="31.671875" fill="white" class="classText"/><line x1="0" y1="26.671875" y2="26.671875" x2="73.078125"/><text x="5" y="41.671875" fill="white" class="classText"/></g><g id="classid-Agent-347" class="classGroup " transform="translate(329.93359422683716,404.21875 )"><rect x="0" y="0" width="38.34375" height="30.84375"/><text y="15" x="0"><tspan class="title" x="5">Agent</tspan></text><line x1="0" y1="21.671875" y2="21.671875" x2="38.34375"/><text x="5" y="31.671875" fill="white" class="classText"/><line x1="0" y1="26.671875" y2="26.671875" x2="38.34375"/><text x="5" y="41.671875" fill="white" class="classText"/></g><g id="classid-Person-348" class="classGroup " transform="translate(189.28515672683716,485.0625 )"><rect x="0" y="0" width="43.90625" height="30.84375"/><text y="15" x="0"><tspan class="title" x="5">Person</tspan></text><line x1="0" y1="21.671875" y2="21.671875" x2="43.90625"/><text x="5" y="31.671875" fill="white" class="classText"/><line x1="0" y1="26.671875" y2="26.671875" x2="43.90625"/><text x="5" y="41.671875" fill="white" class="classText"/></g><g id="classid-Family-349" class="classGroup " transform="translate(416.25390672683716,485.0625 )"><rect x="0" y="0" width="41.953125" height="30.84375"/><text y="15" x="0"><tspan class="title" x="5">Family</tspan></text><line x1="0" y1="21.671875" y2="21.671875" x2="41.953125"/><text x="5" y="31.671875" fill="white" class="classText"/><line x1="0" y1="26.671875" y2="26.671875" x2="41.953125"/><text x="5" y="41.671875" fill="white" class="classText"/></g><g id="classid-CorporateBody-350" class="classGroup " transform="translate(283.19140672683716,485.0625 )"><rect x="0" y="0" width="83.0625" height="30.84375"/><text y="15" x="0"><tspan class="title" x="5">CorporateBody</tspan></text><line x1="0" y1="21.671875" y2="21.671875" x2="83.0625"/><text x="5" y="31.671875" fill="white" class="classText"/><line x1="0" y1="26.671875" y2="26.671875" x2="83.0625"/><text x="5" y="41.671875" fill="white" class="classText"/></g><g id="classid-Project-351" class="classGroup " transform="translate(236.02734422683716,404.21875 )"><rect x="0" y="0" width="43.90625" height="30.84375"/><text y="15" x="0"><tspan class="title" x="5">Project</tspan></text><line x1="0" y1="21.671875" y2="21.671875" x2="43.90625"/><text x="5" y="31.671875" fill="white" class="classText"/><line x1="0" y1="26.671875" y2="26.671875" x2="43.90625"/><text x="5" y="41.671875" fill="white" class="classText"/></g><g id="classid-Collection-352" class="classGroup " transform="translate(242.28515672683716,242.53125 )"><rect x="0" y="0" width="58.34375" height="30.84375"/><text y="15" x="0"><tspan class="title" x="5">Collection</tspan></text><line x1="0" y1="21.671875" y2="21.671875" x2="58.34375"/><text x="5" y="31.671875" fill="white" class="classText"/><line x1="0" y1="26.671875" y2="26.671875" x2="58.34375"/><text x="5" y="41.671875" fill="white" class="classText"/></g><g id="classid-Website-353" class="classGroup " transform="translate(3.0546875,0 )"><rect x="0" y="0" width="48.4375" height="30.84375"/><text y="15" x="0"><tspan class="title" x="5">Website</tspan></text><line x1="0" y1="21.671875" y2="21.671875" x2="48.4375"/><text x="5" y="31.671875" fill="white" class="classText"/><line x1="0" y1="26.671875" y2="26.671875" x2="48.4375"/><text x="5" y="41.671875" fill="white" class="classText"/></g><g id="classid-Webpage-354" class="classGroup " transform="translate(0,80.84375 )"><rect x="0" y="0" width="54.546875" height="30.84375"/><text y="15" x="0"><tspan class="title" x="5">Webpage</tspan></text><line x1="0" y1="21.671875" y2="21.671875" x2="54.546875"/><text x="5" y="31.671875" fill="white" class="classText"/><line x1="0" y1="26.671875" y2="26.671875" x2="54.546875"/><text x="5" y="41.671875" fill="white" class="classText"/></g><g id="classid-Topic-355" class="classGroup " transform="translate(404.58984422683716,0 )"><rect x="0" y="0" width="36.203125" height="30.84375"/><text y="15" x="0"><tspan class="title" x="5">Topic</tspan></text><line x1="0" y1="21.671875" y2="21.671875" x2="36.203125"/><text x="5" y="31.671875" fill="white" class="classText"/><line x1="0" y1="26.671875" y2="26.671875" x2="36.203125"/><text x="5" y="41.671875" fill="white" class="classText"/></g><g id="classid-Subtopic-356" class="classGroup " transform="translate(396.16796922683716,80.84375 )"><rect x="0" y="0" width="53.046875" height="30.84375"/><text y="15" x="0"><tspan class="title" x="5">Subtopic</tspan></text><line x1="0" y1="21.671875" y2="21.671875" x2="53.046875"/><text x="5" y="31.671875" fill="white" class="classText"/><line x1="0" y1="26.671875" y2="26.671875" x2="53.046875"/><text x="5" y="41.671875" fill="white" class="classText"/></g><g id="classid-Article-357" class="classGroup " transform="translate(490.79296922683716,0 )"><rect x="0" y="0" width="41.40625" height="30.84375"/><text y="15" x="0"><tspan class="title" x="5">Article</tspan></text><line x1="0" y1="21.671875" y2="21.671875" x2="41.40625"/><text x="5" y="31.671875" fill="white" class="classText"/><line x1="0" y1="26.671875" y2="26.671875" x2="41.40625"/><text x="5" y="41.671875" fill="white" class="classText"/></g><g id="classid-License-358" class="classGroup " transform="translate(582.1992192268372,0 )"><rect x="0" y="0" width="47.515625" height="30.84375"/><text y="15" x="0"><tspan class="title" x="5">License</tspan></text><line x1="0" y1="21.671875" y2="21.671875" x2="47.515625"/><text x="5" y="31.671875" fill="white" class="classText"/><line x1="0" y1="26.671875" y2="26.671875" x2="47.515625"/><text x="5" y="41.671875" fill="white" class="classText"/></g><path d="M231.75000047683716,23.065853343306273L219.20963581403097,28.528836119421896C206.66927115122476,33.99181889553751,181.5885418256124,44.91778444776876,169.04817716280618,54.54743389055105C156.5078125,64.17708333333333,156.5078125,72.51041666666667,156.5078125,76.67708333333333L156.5078125,80.84375" id="edge288" class="relation" marker-end="url(#dependencyEnd)"/><g class="classLabel"><rect class="box" x="139.296875" y="32.765625" width="86.734375" height="16.6875"/><text class="label" x="182.6690925356217" y="44.44706209828172" fill="red" text-anchor="middle">is realized through</text></g><g class="cardinality"><text class="type1" x="218.29328235338886" y="23.4741881888161" fill="black" font-size="6">1</text></g><g class="cardinality"><text class="type2" x="166.5078125" y="68.34375" fill="black" font-size="6">0..*</text></g><path d="M156.5078125,111.6875L156.5078125,115.85416666666667C156.5078125,120.02083333333333,156.5078125,128.35416666666666,156.5078125,136.6875C156.5078125,145.02083333333334,156.5078125,153.35416666666666,156.5078125,157.52083333333334L156.5078125,161.6875" id="edge289" class="relation" marker-end="url(#dependencyEnd)"/><g class="classLabel"><rect class="box" x="121.765625" y="125.015625" width="69.484375" height="16.671875"/><text class="label" x="156.5078125" y="136.6875" fill="red" text-anchor="middle">is embodied in</text></g><path d="M156.5078125,192.53125L156.5078125,196.69791666666666C156.5078125,200.86458333333334,156.5078125,209.19791666666666,156.5078125,217.53125C156.5078125,225.86458333333334,156.5078125,234.19791666666666,156.5078125,238.36458333333334L156.5078125,242.53125" id="edge290" class="relation" marker-end="url(#dependencyEnd)"/><g class="classLabel"><rect class="box" x="117.046875" y="205.859375" width="78.921875" height="16.671875"/><text class="label" x="156.5078125" y="217.53125" fill="red" text-anchor="middle">is exemplified by</text></g><g class="cardinality"><text class="type1" x="151.5078125" y="205.03125" fill="black" font-size="6">1</text></g><g class="cardinality"><text class="type2" x="166.5078125" y="230.03125" fill="black" font-size="6">0..*</text></g><path d="M156.5078125,273.375L156.5078125,277.5416666666667C156.5078125,281.7083333333333,156.5078125,290.0416666666667,159.24304318953352,298.375C161.97827387906705,306.7083333333333,167.44873525813412,315.0416666666667,170.18396594766764,319.2083333333333L172.91919663720117,323.375" id="edge291" class="relation" marker-start="url(#dependencyStart)"/><g class="classLabel"><rect class="box" x="124.765625" y="288.75" width="66.71875" height="16.6875"/><text class="label" x="157.85379912480576" y="300.42538559446473" fill="red" text-anchor="middle">digital copy of</text></g><g class="cardinality"><text class="type1" x="146.5078125" y="285.875" fill="black" font-size="6">1</text></g><g class="cardinality"><text class="type2" x="170.23933695562044" y="310.1815034169467" fill="black" font-size="6">0..*</text></g><path d="M170.24108420074515,354.21875L166.78228378842715,358.3854166666667C163.32348337610915,362.5520833333333,156.40588255147316,370.8854166666667,152.94708213915516,379.21875C149.48828172683716,387.5520833333333,149.48828172683716,395.8854166666667,149.48828172683716,400.0520833333333L149.48828172683716,404.21875" id="edge292" class="relation" marker-end="url(#dependencyEnd)"/><g class="classLabel"><rect class="box" x="141.3125" y="364.65625" width="21.140625" height="16.6875"/><text class="label" x="151.8806768066009" y="376.3367355313859" fill="red" text-anchor="middle">has</text></g><g class="cardinality"><text class="type1" x="158.40988383100054" y="360.6431330685098" fill="black" font-size="6">1</text></g><g class="cardinality"><text class="type2" x="159.48828172683716" y="391.71875" fill="black" font-size="6">1..*</text></g><path d="M266.84375047683716,22.528252930413682L280.5540369351705,28.080835775344735C294.26432339350384,33.63341862027579,321.6848963101705,44.738584310137895,335.39518276850384,57.02814632173562C349.10546922683716,69.31770833333333,349.10546922683716,82.79166666666667,349.10546922683716,96.265625C349.10546922683716,109.73958333333333,349.10546922683716,123.21354166666667,349.10546922683716,136.6875C349.10546922683716,150.16145833333334,349.10546922683716,163.63541666666666,349.10546922683716,177.109375C349.10546922683716,190.58333333333334,349.10546922683716,204.05729166666666,349.10546922683716,217.53125C349.10546922683716,231.00520833333334,349.10546922683716,244.47916666666666,349.10546922683716,257.953125C349.10546922683716,271.4270833333333,349.10546922683716,284.9010416666667,349.10546922683716,298.375C349.10546922683716,311.8489583333333,349.10546922683716,325.3229166666667,349.10546922683716,338.796875C349.10546922683716,352.2708333333333,349.10546922683716,365.7447916666667,349.10546922683716,376.6484375C349.10546922683716,387.5520833333333,349.10546922683716,395.8854166666667,349.10546922683716,400.0520833333333L349.10546922683716,404.21875" id="edge293" class="relation" marker-end="url(#dependencyEnd)"/><g class="classLabel"><rect class="box" x="323.25" y="173.984375" width="51.703125" height="16.671875"/><text class="label" x="349.10546922683716" y="185.6552634850567" fill="red" text-anchor="middle">created by</text></g><g class="cardinality"><text class="type1" x="276.5527627907031" y="31.854832147318408" fill="black" font-size="6">*</text></g><g class="cardinality"><text class="type2" x="359.10546922683716" y="391.71875" fill="black" font-size="6">1..*</text></g><path d="M335.5375575530838,435.0625L331.8717928320427,439.2291666666667C328.20602811100156,443.3958333333333,320.8744986689194,451.7291666666667,303.81680686454496,461.187152976645C286.7591150601705,470.64513928662336,259.97526089350384,481.2277785732468,246.5833338101705,486.51909821655846L233.19140672683716,491.8104178598702" id="edge294" class="relation" marker-start="url(#extensionStart)"/><path d="M353.1844866094232,435.0625L354.2865514206589,439.2291666666667C355.3886162318945,443.3958333333333,357.59274585436583,451.7291666666667,368.10431587393487,460.8077820744841C378.61588589350384,469.8863974823017,397.4348963101705,479.7102949646034,406.84440151850384,484.6222437057542L416.25390672683716,489.5341924469051" id="edge295" class="relation" marker-start="url(#extensionStart)"/><path d="M365.0802545114332,435.0625L369.39630592233385,439.2291666666667C373.7123573332345,443.3958333333333,382.34446015503585,451.7291666666667,379.83109203237126,460.0625C377.3177239097067,468.3958333333333,363.65888484257613,476.7291666666667,356.82946530901086,480.8958333333333L350.0000457754456,485.0625" id="edge296" class="relation" marker-start="url(#extensionStart)"/><path d="M257.98046922683716,435.0625L257.98046922683716,439.2291666666667C257.98046922683716,443.3958333333333,257.98046922683716,451.7291666666667,264.8602205475433,460.0625C271.73997186824937,468.3958333333333,285.4994745096615,476.7291666666667,292.37922583036766,480.8958333333333L299.25897715107374,485.0625" id="edge297" class="relation" marker-end="url(#dependencyEnd)"/><g class="classLabel"><rect class="box" x="235.40625" y="454.40625" width="65.046875" height="16.6875"/><text class="label" x="267.9277671500812" y="466.08700186759506" fill="red" text-anchor="middle">sponsored by</text></g><g class="cardinality"><text class="type1" x="252.98046922683716" y="447.5625" fill="black" font-size="6">1..*</text></g><g class="cardinality"><text class="type2" x="293.74741961812344" y="470.0334370364956" fill="black" font-size="6">0..*</text></g><path d="M211.6333490103702,354.21875L219.35786904644803,358.3854166666667C227.08238908252588,362.5520833333333,242.53142915468152,370.8854166666667,250.25594919075934,379.21875C257.98046922683716,387.5520833333333,257.98046922683716,395.8854166666667,257.98046922683716,400.0520833333333L257.98046922683716,404.21875" id="edge298" class="relation" marker-end="url(#dependencyEnd)"/><g class="classLabel"><rect class="box" x="210.78125" y="360.984375" width="70.046875" height="16.671875"/><text class="label" x="245.8084491271586" y="372.65306693122005" fill="red" text-anchor="middle">digitized within</text></g><g class="cardinality"><text class="type1" x="220.2611622464371" y="364.5536829346421" fill="black" font-size="6">*</text></g><g class="cardinality"><text class="type2" x="267.98046922683716" y="391.71875" fill="black" font-size="6">1</text></g><path d="M271.45703172683716,273.375L271.45703172683716,277.5416666666667C271.45703172683716,281.7083333333333,271.45703172683716,290.0416666666667,262.3433543656724,298.375C253.22967700450758,306.7083333333333,235.00232228217797,315.0416666666667,225.8886449210132,319.2083333333333L216.77496755984836,323.375" id="edge299" class="relation" marker-end="url(#dependencyEnd)"/><g class="classLabel"><rect class="box" x="234.359375" y="294" width="42.25" height="16.6875"/><text class="label" x="255.48423523653818" y="305.6775756862072" fill="red" text-anchor="middle">contains</text></g><g class="cardinality"><text class="type1" x="266.45703172683716" y="285.875" fill="black" font-size="6">*</text></g><g class="cardinality"><text class="type2" x="232.30114260407802" y="327.27216416076357" fill="black" font-size="6">*</text></g><path d="M27.2734375,30.84375L27.2734375,35.010416666666664C27.2734375,39.177083333333336,27.2734375,47.510416666666664,27.2734375,55.84375C27.2734375,64.17708333333333,27.2734375,72.51041666666667,27.2734375,76.67708333333333L27.2734375,80.84375" id="edge300" class="relation" marker-end="url(#dependencyEnd)"/><g class="classLabel"><rect class="box" x="16.703125" y="44.171875" width="21.140625" height="16.671875"/><text class="label" x="27.2734375" y="55.84375" fill="red" text-anchor="middle">has</text></g><g class="cardinality"><text class="type1" x="22.2734375" y="43.34375" fill="black" font-size="6">1</text></g><g class="cardinality"><text class="type2" x="37.2734375" y="68.34375" fill="black" font-size="6">*</text></g><path d="M54.546875,87.95433508722276L58.435763888888886,86.76923757268564C62.32465277777777,85.58414005814852,70.10243055555556,83.21394502907425,74.96354166666667,82.02884751453713C79.82465277777777,80.84375,81.76909722222223,80.84375,83.71354166666667,83.4140625C85.65798611111113,85.984375,87.60243055555556,91.125,87.60243055555556,96.265625C87.60243055555556,101.40625,85.65798611111113,106.546875,83.71354166666667,109.1171875C81.76909722222223,111.6875,79.82465277777777,111.6875,74.96354166666667,110.50240248546288C70.10243055555556,109.31730497092575,62.32465277777777,106.94710994185148,58.435763888888886,105.76201242731436L54.546875,104.57691491277724" id="edge301" class="relation" marker-end="url(#dependencyEnd)"/><g class="classLabel"><rect class="box" x="66.203125" y="84.59375" width="47.25" height="16.671875"/><text class="label" x="89.546875" y="96.265625" fill="red" text-anchor="middle">is child of</text></g><g class="cardinality"><text class="type1" x="67.94076402797135" y="89.19210117571498" fill="black" font-size="6">*</text></g><g class="cardinality"><text class="type2" x="63.67001461563688" y="117.7183247205958" fill="black" font-size="6">0..1</text></g><path d="M422.69140672683716,30.84375L422.69140672683716,35.010416666666664C422.69140672683716,39.177083333333336,422.69140672683716,47.510416666666664,422.69140672683716,55.84375C422.69140672683716,64.17708333333333,422.69140672683716,72.51041666666667,422.69140672683716,76.67708333333333L422.69140672683716,80.84375" id="edge302" class="relation" marker-end="url(#dependencyEnd)"/><g class="classLabel"><rect class="box" x="412.125" y="44.171875" width="21.140625" height="16.671875"/><text class="label" x="422.69140672683716" y="55.84375" fill="red" text-anchor="middle">has</text></g><g class="cardinality"><text class="type1" x="417.69140672683716" y="43.34375" fill="black" font-size="6">1</text></g><g class="cardinality"><text class="type2" x="432.69140672683716" y="68.34375" fill="black" font-size="6">*</text></g><path d="M449.21484422683716,88.06130027422303L453.1037331157261,86.8583752285192C456.99262200461493,85.65545018281534,464.77039978239264,83.24960009140767,469.63151089350373,82.04667504570384C474.49262200461493,80.84375,476.4370664490594,80.84375,478.38151089350384,83.4140625C480.3259553379483,85.984375,482.27039978239276,91.125,482.27039978239264,96.265625C482.27039978239276,101.40625,480.3259553379483,106.546875,478.3815108935039,109.1171875C476.4370664490594,111.6875,474.49262200461493,111.6875,469.63151089350384,110.48457495429615C464.77039978239264,109.28164990859233,456.99262200461493,106.87579981718466,453.1037331157261,105.6728747714808L449.21484422683716,104.46994972577697" id="edge303" class="relation" marker-end="url(#dependencyEnd)"/><g class="classLabel"><rect class="box" x="460.859375" y="84.59375" width="47.265625" height="16.671875"/><text class="label" x="484.21484422683716" y="96.26562499999999" fill="red" text-anchor="middle">is child of</text></g><g class="cardinality"><text class="type1" x="462.6144156085107" y="89.23918177257116" fill="black" font-size="6">*</text></g><g class="cardinality"><text class="type2" x="458.2795264187055" y="117.6520381338078" fill="black" font-size="6">0..1</text></g></svg>